<svg width="511" height="337" viewBox="0 0 511 337" fill="none" xmlns="http://www.w3.org/2000/svg">
<path d="M471 106.5H467H464H460.5L457 107L453 108L449 109L445.5 110.5L440.5 113.5L436.5 116.5L433.5 119.5L430 124.5L427.5 128L426 133L425 140V146.5L426 152L428 156.5L431.5 162L434.5 166L438 169L441.5 172L445.5 174.5L451 177.5L454.5 179.5L458 182L461.5 184.5L465 188L466 191V194L465 197.5L463.5 199.5L461.5 200.5L458 201H454L451 200.5L448.5 200L446.5 198.5L445.5 197L444 194L442.5 191.5L439.5 189L436.5 187L433.5 186L430 185.5H428H426L423 186.5L420 188L417 190.5L414.5 194L413 197L412.5 200V203.5V206.5L413.5 209.5L415.5 213.5L417 216.5L420 219.5L423 222.5L426 225L429.5 227.5L435.5 230L440.5 232L443.5 233L446 233.5L450 234L454 234.5H459H465H470L473.5 234L477 233L480.5 231.5L483.5 230L486.5 228.5L489.5 227L492.5 224.5L495.5 221.5L498 218.5L500.5 215.5L502 213L503.5 209.5L504 207.5L504.5 202V198V194.5L504 190.5L503.5 187.5L502.5 184.5L501 180.5L499.5 177.5L497.5 174.5L496 172.5L493.5 170L491 168L488.5 166L486 164L483 162.5L480 161L477 159.5L474 157.5L471 155.5L468 153.5L466 152L464 150L462.5 148L461.5 146.5L461 145.5L460.5 143.5V142.5V140.5V139.5L461 138.5L461.5 137.5L462.5 136.5L463.5 136L464.5 135.5L466 135H468H469.5L472 135.5L475 136.5L478 138.5L481 142L483.5 145L486.5 147.5L489.5 149.5L493.5 150L497.5 149.5L501 148L504 146L506 143.5L507.5 140.5L508 136.5V132.5L507 128.5L505.5 125L503.5 122L500 118.5L495.5 115L491 112.5L485 110L480 108L475 107L471 106.5Z" fill="#E2A166" stroke="#030303" stroke-width="6" stroke-linecap="round" stroke-linejoin="round"/>
<path d="M183 232.5H181L176.5 233L172 234L168 235.5L163.5 238.5L160 242.5L156.5 248.5L154.5 253.5L153.5 257.5V262.5V268L154 271.5L155.5 276L159 283.5L164 291.5L169 297.5L174 302.5L180 307.5L186.5 312L192 315.5L200 319L206.5 322L214 324.5L222 327.5L232 330L239.5 331.5L247.5 333L251 333.5H258L267 333H274L280 332.5L287 331.5L293 330.5L299 329L305 327L311.5 324.5L318 321.5L325 318L330.5 314.5L337.5 309.5L343.5 304L349.5 298L355 291.5L359.5 286L364 278.5L368 270.5L371 264.5L373.5 258.5L377 250.5L379.5 242L381.5 233.5L383 225L384 217.5L384.5 211.5L385 204.5L384.5 177L384 153V150V147V145L386 144.5H389.5L394.5 143.5L399 142.5L403.5 141L408 139L411 136.5L414 133.5L415.5 130L416 125V121.5L415.5 119.5L412 115.5L408 112.5L405 111L401 109.5L398 108.5L393 107L391 106.5L387.5 106H386.5H385H384H383L382.5 105.5L382 103.5V102.5V97.5V90.5L382.5 82.5L383 75.5L384 69.5L386 62L388 56.5L390 51.5L393.5 46.5L397 42.5L401 39L405 36.5L409.5 34.5L414 33.5L417 33H421H423L425.5 33.5L427 34L427.5 34.5L428.5 36L429 37.5V40V43.5L428 47.5L426.5 52.5L426 56.5V60.5L426.5 65.5L428 70L429.5 73.5L433 78.5L437 82.5L440 84.5L444 86L448 86.5L451.5 86L453.5 85.5L459.5 81.5L464 78L468 73.5L471 68.5L473.5 61.5L474 54V50.5L473 43.5L471.5 37.5L469 31.5L465.5 25.5L461.5 19.5L456.5 14.5L450.5 10.5L443 7L436 4.5L430 3H422H414L406 3.5L397.5 5.5L389 8.5L383 11.5L377 15.5L373 18.5L368.5 22.5L364 27.5L360 33.5L355.5 41L352 48.5L349 56.5L347 65L345.5 73.5L345 77.5V86.5V97.5V103.5V104.5V105.5V106L344.5 106.5L343 107L341 107.5L337.5 108.5L334 109.5L330 111.5L326.5 113.5L323 116.5L320.5 119.5L319 123L318.5 125.5V127.5L319.5 130.5L322 134.5L325 137.5L328 139.5L332 142L336 143.5L341 144H342.5H343.5H344.5H345L346 144.5L346.5 145V146.5V150.5V154.5L346 161.5L345.5 167.5L345 173.5L344.5 178.5L344 184.5L343.5 189.5L343 194.5L342 200.5L341.5 204.5L340.5 209.5L339.5 214.5L338.5 218.5L337.5 222.5L335.5 228.5L334 233.5L332.5 238.5L331 242.5L327.5 249.5L325 253.5L322 257.5L318 261.5L314 265L310 268L305 270.5L299.5 272.5L294 274L288 275.5L283 276H278H273H268L264 275.5L260 275L255 273.5L249.5 271.5L245.5 270L241 268L237 265.5L231 261L227 258L223.5 255L219.5 252L215.5 248.5L211.5 245.5L207.5 242.5L203.5 240L199 237.5L195 235.5L191 234L186 233L183 232.5Z" fill="#E2A166" stroke="#030303" stroke-width="6" stroke-linecap="round" stroke-linejoin="round"/>
<path fill-rule="evenodd" clip-rule="evenodd" d="M216 144.5L215 147.5L214 151.5L213 156.5L212.5 161L212 165.5V170V174.5V178.5L212.5 182.5L213.5 186.5L214.5 190.5L216 194.5L217.5 198.5L219 202L221.5 206.5L224.5 211L228 215L231.5 218.5L235.5 222L240 225L244.5 227.5L249.5 229.5L253 230.5L257.5 231.5L261.5 232H265.5H269.5H274H277.5L281.5 231L286 229.5L290 228L293.5 226.5L297.5 224.5L301 222.5L304 220.5L307 218.5L310 215.5L312.5 212.5L315 208.5L316.5 205.5L317 202L317.5 198V194.5V190.5L316.5 187.5L314 184.5L311 182.5L307.5 181H303.5L299.5 181.5L295.5 182.5L292 184.5L288.5 186.5L285.5 189L282 190.5L278 192L274.5 192.5L271 193H267.5L264 192L261 190L258 187.5L255 184.5L254 181.5L253.5 177.5L254 175.5L255.5 174.5H257L259.5 175H262.5H266H270.5H273.5H276.5L278.5 174.5L280.5 174L282 173.5L285 172.5L288 171.5L290 170.5L292 169.5L294.5 168L296.5 166.5L299 164L301 161.5L303.5 158L305 155L306 153L307 150.5L307.5 148.5V145.5V141.5V138V135L307 131.5L306 128.5L304.5 125L302 121.5L300 119L297 115.5L294.5 113L292 111L288.5 108.5L285 106.5L281.5 105.5L277.5 104.5L274 104L270 103.5H266.5L262 104L257.5 105L253.5 106L249 108L244.5 110L240.5 112.5L236.5 115L233 118L229.5 121L226.5 124.5L223 128.5L220.5 132.5L218.5 136.5L217 141L216 144.5ZM248 151.5L249 152.5L251.5 154.5L254 155.5L256 156L258.5 156.5H260H261.5H263H264H265.5H266.5H268.5L271 156L272 155.5L273.5 154.5L275 153.5L276.5 151.5L278 149.5L279 147.5L279.5 145.5V143.5V141.5V140L279 139L278.5 138L277.5 136.5L276.5 135.5L274 134L272.5 133.5L270 133H268H263.5L260 133.5L256 134.5L253.5 136L249.5 139L248 141.5L247 143L246.5 144.5L246 146.5V148L246.5 150L248 151.5Z" fill="#E2A166"/>
<path d="M215 147.5L212.154 146.551C212.13 146.624 212.108 146.698 212.09 146.772L215 147.5ZM216 144.5L218.846 145.449C218.86 145.407 218.873 145.366 218.885 145.324L216 144.5ZM214 151.5L211.09 150.772C211.078 150.819 211.068 150.865 211.058 150.912L214 151.5ZM213 156.5L210.058 155.912C210.041 155.997 210.028 156.082 210.018 156.169L213 156.5ZM212 165.5L209.018 165.169C209.006 165.279 209 165.389 209 165.5H212ZM212 178.5H209C209 178.624 209.008 178.749 209.023 178.872L212 178.5ZM212.5 182.5L209.523 182.872C209.538 182.992 209.56 183.111 209.59 183.228L212.5 182.5ZM214.5 190.5L211.59 191.228C211.617 191.338 211.651 191.447 211.691 191.553L214.5 190.5ZM217.5 198.5L214.691 199.553C214.707 199.597 214.724 199.639 214.743 199.682L217.5 198.5ZM219 202L216.243 203.182C216.283 203.276 216.328 203.368 216.378 203.457L219 202ZM221.5 206.5L218.878 207.957C218.917 208.028 218.959 208.097 219.004 208.164L221.5 206.5ZM224.5 211L222.004 212.664C222.076 212.773 222.156 212.877 222.242 212.976L224.5 211ZM228 215L225.742 216.976C225.786 217.026 225.832 217.074 225.879 217.121L228 215ZM231.5 218.5L229.379 220.621C229.426 220.668 229.474 220.714 229.524 220.758L231.5 218.5ZM235.5 222L233.524 224.258C233.623 224.344 233.727 224.424 233.836 224.496L235.5 222ZM240 225L238.336 227.496C238.403 227.541 238.472 227.583 238.543 227.622L240 225ZM244.5 227.5L243.043 230.122C243.154 230.184 243.268 230.238 243.386 230.285L244.5 227.5ZM249.5 229.5L248.386 232.285C248.481 232.323 248.578 232.356 248.676 232.385L249.5 229.5ZM253 230.5L252.176 233.385C252.233 233.401 252.291 233.416 252.349 233.429L253 230.5ZM257.5 231.5L256.849 234.429C256.941 234.449 257.034 234.465 257.128 234.477L257.5 231.5ZM261.5 232L261.128 234.977C261.251 234.992 261.376 235 261.5 235V232ZM277.5 232V235C277.745 235 277.99 234.97 278.228 234.91L277.5 232ZM281.5 231L282.228 233.91C282.302 233.892 282.376 233.87 282.449 233.846L281.5 231ZM286 229.5L286.949 232.346C286.984 232.334 287.019 232.322 287.053 232.309L286 229.5ZM290 228L291.053 230.809C291.097 230.793 291.139 230.776 291.182 230.757L290 228ZM293.5 226.5L294.682 229.257C294.736 229.234 294.789 229.21 294.842 229.183L293.5 226.5ZM297.5 224.5L298.842 227.183C298.891 227.158 298.94 227.132 298.988 227.105L297.5 224.5ZM301 222.5L302.488 225.105C302.548 225.071 302.607 225.034 302.664 224.996L301 222.5ZM307 218.5L308.664 220.996C308.828 220.887 308.982 220.761 309.121 220.621L307 218.5ZM310 215.5L312.121 217.621C312.185 217.557 312.247 217.49 312.305 217.421L310 215.5ZM312.5 212.5L314.805 214.421C314.892 214.316 314.972 214.205 315.044 214.09L312.5 212.5ZM315 208.5L317.544 210.09C317.594 210.009 317.641 209.927 317.683 209.842L315 208.5ZM316.5 205.5L319.183 206.842C319.327 206.553 319.424 206.243 319.47 205.924L316.5 205.5ZM317 202L319.97 202.424C319.972 202.407 319.975 202.39 319.977 202.372L317 202ZM317.5 198L320.477 198.372C320.492 198.249 320.5 198.124 320.5 198H317.5ZM317.5 190.5H320.5C320.5 190.178 320.448 189.857 320.346 189.551L317.5 190.5ZM316.5 187.5L319.346 186.551C319.228 186.196 319.044 185.867 318.805 185.579L316.5 187.5ZM314 184.5L316.305 182.579C316.12 182.358 315.904 182.164 315.664 182.004L314 184.5ZM311 182.5L312.664 180.004C312.512 179.902 312.35 179.815 312.182 179.743L311 182.5ZM307.5 181L308.682 178.243C308.308 178.083 307.906 178 307.5 178V181ZM303.5 181V178C303.376 178 303.251 178.008 303.128 178.023L303.5 181ZM299.5 181.5L299.128 178.523C299.008 178.538 298.889 178.56 298.772 178.59L299.5 181.5ZM295.5 182.5L294.772 179.59C294.506 179.656 294.25 179.759 294.012 179.895L295.5 182.5ZM288.5 186.5L287.012 183.895C286.859 183.982 286.714 184.083 286.579 184.195L288.5 186.5ZM285.5 189L286.682 191.757C286.949 191.643 287.197 191.491 287.421 191.305L285.5 189ZM282 190.5L283.053 193.309C283.097 193.293 283.139 193.276 283.182 193.257L282 190.5ZM278 192L278.424 194.97C278.639 194.939 278.85 194.885 279.053 194.809L278 192ZM271 193V196C271.142 196 271.284 195.99 271.424 195.97L271 193ZM267.5 193L266.676 195.885C266.944 195.961 267.221 196 267.5 196V193ZM264 192L262.336 194.496C262.594 194.668 262.877 194.799 263.176 194.885L264 192ZM261 190L259.079 192.305C259.161 192.373 259.247 192.437 259.336 192.496L261 190ZM258 187.5L255.879 189.621C255.943 189.685 256.01 189.747 256.079 189.805L258 187.5ZM255 184.5L252.154 185.449C252.301 185.891 252.549 186.292 252.879 186.621L255 184.5ZM254 181.5L251.023 181.872C251.048 182.068 251.091 182.261 251.154 182.449L254 181.5ZM253.5 177.5L250.59 176.772C250.5 177.132 250.477 177.505 250.523 177.872L253.5 177.5ZM254 175.5L252.336 173.004C251.715 173.418 251.271 174.048 251.09 174.772L254 175.5ZM255.5 174.5V171.5C254.908 171.5 254.329 171.675 253.836 172.004L255.5 174.5ZM257 174.5L257.588 171.558C257.395 171.52 257.198 171.5 257 171.5V174.5ZM259.5 175L258.912 177.942C259.105 177.98 259.302 178 259.5 178V175ZM276.5 175V178C276.745 178 276.99 177.97 277.228 177.91L276.5 175ZM280.5 174L281.228 176.91C281.302 176.892 281.376 176.87 281.449 176.846L280.5 174ZM288 171.5L288.949 174.346C289.083 174.301 289.215 174.247 289.342 174.183L288 171.5ZM292 169.5L293.342 172.183C293.41 172.149 293.478 172.112 293.543 172.072L292 169.5ZM294.5 168L296.043 170.572C296.132 170.519 296.218 170.462 296.3 170.4L294.5 168ZM296.5 166.5L298.3 168.9C298.414 168.815 298.521 168.722 298.621 168.621L296.5 166.5ZM299 164L301.121 166.121C301.2 166.043 301.273 165.961 301.343 165.874L299 164ZM301 161.5L303.343 163.374C303.377 163.332 303.41 163.288 303.441 163.244L301 161.5ZM303.5 158L305.941 159.744C306.032 159.616 306.113 159.482 306.183 159.342L303.5 158ZM306 153L308.683 154.342C308.72 154.267 308.755 154.191 308.785 154.114L306 153ZM307 150.5L309.785 151.614C309.836 151.488 309.878 151.359 309.91 151.228L307 150.5ZM307.5 148.5L310.41 149.228C310.47 148.99 310.5 148.745 310.5 148.5H307.5ZM307.5 135H310.5C310.5 134.858 310.49 134.716 310.47 134.576L307.5 135ZM307 131.5L309.97 131.076C309.944 130.898 309.903 130.722 309.846 130.551L307 131.5ZM306 128.5L308.846 127.551C308.82 127.472 308.79 127.395 308.757 127.318L306 128.5ZM304.5 125L307.257 123.818C307.173 123.62 307.066 123.432 306.941 123.256L304.5 125ZM302 121.5L304.441 119.756C304.41 119.712 304.377 119.668 304.343 119.626L302 121.5ZM300 119L302.343 117.126C302.321 117.099 302.3 117.073 302.278 117.048L300 119ZM297 115.5L299.278 113.548C299.228 113.489 299.176 113.433 299.121 113.379L297 115.5ZM294.5 113L296.621 110.879C296.543 110.8 296.461 110.727 296.374 110.657L294.5 113ZM292 111L293.874 108.657C293.832 108.623 293.788 108.59 293.744 108.559L292 111ZM288.5 108.5L290.244 106.059C290.161 106 290.076 105.945 289.988 105.895L288.5 108.5ZM285 106.5L286.488 103.895C286.279 103.776 286.056 103.682 285.824 103.615L285 106.5ZM281.5 105.5L282.324 102.615C282.292 102.606 282.26 102.598 282.228 102.59L281.5 105.5ZM277.5 104.5L278.228 101.59C278.128 101.565 278.026 101.545 277.924 101.53L277.5 104.5ZM274 104L274.424 101.03C274.407 101.028 274.39 101.025 274.372 101.023L274 104ZM270 103.5L270.372 100.523C270.249 100.508 270.124 100.5 270 100.5V103.5ZM266.5 103.5V100.5C266.389 100.5 266.279 100.506 266.169 100.518L266.5 103.5ZM262 104L261.669 101.018C261.561 101.03 261.455 101.048 261.349 101.071L262 104ZM257.5 105L256.849 102.071C256.824 102.077 256.798 102.083 256.772 102.09L257.5 105ZM253.5 106L252.772 103.09C252.604 103.132 252.44 103.188 252.282 103.259L253.5 106ZM244.5 110L243.282 107.259C243.153 107.316 243.029 107.382 242.91 107.456L244.5 110ZM236.5 115L234.91 112.456C234.783 112.536 234.662 112.625 234.548 112.722L236.5 115ZM229.5 121L227.548 118.722C227.431 118.822 227.322 118.931 227.222 119.048L229.5 121ZM226.5 124.5L228.758 126.476C228.764 126.468 228.771 126.46 228.778 126.452L226.5 124.5ZM223 128.5L220.742 126.524C220.637 126.645 220.541 126.774 220.456 126.91L223 128.5ZM220.5 132.5L217.956 130.91C217.906 130.991 217.859 131.073 217.817 131.158L220.5 132.5ZM218.5 136.5L215.817 135.158C215.753 135.285 215.699 135.417 215.654 135.551L218.5 136.5ZM217 141L214.154 140.051C214.14 140.093 214.127 140.134 214.115 140.176L217 141ZM249 152.5L246.879 154.621C246.957 154.7 247.039 154.773 247.126 154.843L249 152.5ZM251.5 154.5L249.626 156.843C249.856 157.027 250.112 157.176 250.386 157.285L251.5 154.5ZM254 155.5L252.886 158.285C253.012 158.336 253.141 158.378 253.272 158.41L254 155.5ZM256 156L255.272 158.91C255.319 158.922 255.365 158.932 255.412 158.942L256 156ZM258.5 156.5L257.912 159.442C258.105 159.48 258.302 159.5 258.5 159.5V156.5ZM268.5 156.5V159.5C268.698 159.5 268.895 159.48 269.088 159.442L268.5 156.5ZM271 156L271.588 158.942C271.85 158.889 272.103 158.803 272.342 158.683L271 156ZM272 155.5L273.342 158.183C273.453 158.128 273.561 158.065 273.664 157.996L272 155.5ZM275 153.5L276.664 155.996C276.947 155.807 277.196 155.572 277.4 155.3L275 153.5ZM278 149.5L280.4 151.3C280.508 151.156 280.603 151.003 280.683 150.842L278 149.5ZM279 147.5L281.683 148.842C281.781 148.646 281.857 148.44 281.91 148.228L279 147.5ZM279.5 145.5L282.41 146.228C282.47 145.99 282.5 145.745 282.5 145.5H279.5ZM279.5 140H282.5C282.5 139.534 282.392 139.075 282.183 138.658L279.5 140ZM278.5 138L281.183 136.658C281.128 136.547 281.065 136.439 280.996 136.336L278.5 138ZM277.5 136.5L279.996 134.836C279.887 134.672 279.761 134.518 279.621 134.379L277.5 136.5ZM276.5 135.5L278.621 133.379C278.448 133.205 278.254 133.054 278.043 132.928L276.5 135.5ZM274 134L275.543 131.428C275.356 131.315 275.156 131.223 274.949 131.154L274 134ZM272.5 133.5L273.449 130.654C273.331 130.615 273.21 130.583 273.088 130.558L272.5 133.5ZM270 133L270.588 130.058C270.395 130.02 270.198 130 270 130V133ZM263.5 133V130C263.358 130 263.216 130.01 263.076 130.03L263.5 133ZM260 133.5L259.576 130.53C259.474 130.545 259.372 130.565 259.272 130.59L260 133.5ZM256 134.5L255.272 131.59C254.985 131.661 254.71 131.775 254.457 131.928L256 134.5ZM253.5 136L251.957 133.428C251.868 133.481 251.782 133.538 251.7 133.6L253.5 136ZM249.5 139L247.7 136.6C247.39 136.833 247.127 137.124 246.928 137.457L249.5 139ZM248 141.5L250.496 143.164C250.523 143.125 250.548 143.084 250.572 143.043L248 141.5ZM247 143L244.504 141.336C244.356 141.558 244.238 141.798 244.154 142.051L247 143ZM246.5 144.5L243.654 143.551C243.63 143.624 243.608 143.698 243.59 143.772L246.5 144.5ZM246 146.5L243.09 145.772C243.03 146.01 243 146.255 243 146.5H246ZM246 148H243C243 148.245 243.03 148.49 243.09 148.728L246 148ZM246.5 150L243.59 150.728C243.721 151.255 243.994 151.737 244.379 152.121L246.5 150ZM217.846 148.449L218.846 145.449L213.154 143.551L212.154 146.551L217.846 148.449ZM216.91 152.228L217.91 148.228L212.09 146.772L211.09 150.772L216.91 152.228ZM215.942 157.088L216.942 152.088L211.058 150.912L210.058 155.912L215.942 157.088ZM215.482 161.331L215.982 156.831L210.018 156.169L209.518 160.669L215.482 161.331ZM214.982 165.831L215.482 161.331L209.518 160.669L209.018 165.169L214.982 165.831ZM215 170V165.5H209V170H215ZM215 174.5V170H209V174.5H215ZM215 178.5V174.5H209V178.5H215ZM215.477 182.128L214.977 178.128L209.023 178.872L209.523 182.872L215.477 182.128ZM216.41 185.772L215.41 181.772L209.59 183.228L210.59 187.228L216.41 185.772ZM217.41 189.772L216.41 185.772L210.59 187.228L211.59 191.228L217.41 189.772ZM218.809 193.447L217.309 189.447L211.691 191.553L213.191 195.553L218.809 193.447ZM220.309 197.447L218.809 193.447L213.191 195.553L214.691 199.553L220.309 197.447ZM221.757 200.818L220.257 197.318L214.743 199.682L216.243 203.182L221.757 200.818ZM224.122 205.043L221.622 200.543L216.378 203.457L218.878 207.957L224.122 205.043ZM226.996 209.336L223.996 204.836L219.004 208.164L222.004 212.664L226.996 209.336ZM230.258 213.024L226.758 209.024L222.242 212.976L225.742 216.976L230.258 213.024ZM233.621 216.379L230.121 212.879L225.879 217.121L229.379 220.621L233.621 216.379ZM237.476 219.742L233.476 216.242L229.524 220.758L233.524 224.258L237.476 219.742ZM241.664 222.504L237.164 219.504L233.836 224.496L238.336 227.496L241.664 222.504ZM245.957 224.878L241.457 222.378L238.543 227.622L243.043 230.122L245.957 224.878ZM250.614 226.715L245.614 224.715L243.386 230.285L248.386 232.285L250.614 226.715ZM253.824 227.615L250.324 226.615L248.676 232.385L252.176 233.385L253.824 227.615ZM258.151 228.571L253.651 227.571L252.349 233.429L256.849 234.429L258.151 228.571ZM261.872 229.023L257.872 228.523L257.128 234.477L261.128 234.977L261.872 229.023ZM265.5 229H261.5V235H265.5V229ZM269.5 229H265.5V235H269.5V229ZM274 229H269.5V235H274V229ZM277.5 229H274V235H277.5V229ZM280.772 228.09L276.772 229.09L278.228 234.91L282.228 233.91L280.772 228.09ZM285.051 226.654L280.551 228.154L282.449 233.846L286.949 232.346L285.051 226.654ZM288.947 225.191L284.947 226.691L287.053 232.309L291.053 230.809L288.947 225.191ZM292.318 223.743L288.818 225.243L291.182 230.757L294.682 229.257L292.318 223.743ZM296.158 221.817L292.158 223.817L294.842 229.183L298.842 227.183L296.158 221.817ZM299.512 219.895L296.012 221.895L298.988 227.105L302.488 225.105L299.512 219.895ZM302.336 218.004L299.336 220.004L302.664 224.996L305.664 222.996L302.336 218.004ZM305.336 216.004L302.336 218.004L305.664 222.996L308.664 220.996L305.336 216.004ZM307.879 213.379L304.879 216.379L309.121 220.621L312.121 217.621L307.879 213.379ZM310.195 210.579L307.695 213.579L312.305 217.421L314.805 214.421L310.195 210.579ZM312.456 206.91L309.956 210.91L315.044 214.09L317.544 210.09L312.456 206.91ZM313.817 204.158L312.317 207.158L317.683 209.842L319.183 206.842L313.817 204.158ZM314.03 201.576L313.53 205.076L319.47 205.924L319.97 202.424L314.03 201.576ZM314.523 197.628L314.023 201.628L319.977 202.372L320.477 198.372L314.523 197.628ZM314.5 194.5V198H320.5V194.5H314.5ZM314.5 190.5V194.5H320.5V190.5H314.5ZM313.654 188.449L314.654 191.449L320.346 189.551L319.346 186.551L313.654 188.449ZM311.695 186.421L314.195 189.421L318.805 185.579L316.305 182.579L311.695 186.421ZM309.336 184.996L312.336 186.996L315.664 182.004L312.664 180.004L309.336 184.996ZM306.318 183.757L309.818 185.257L312.182 179.743L308.682 178.243L306.318 183.757ZM303.5 184H307.5V178H303.5V184ZM299.872 184.477L303.872 183.977L303.128 178.023L299.128 178.523L299.872 184.477ZM296.228 185.41L300.228 184.41L298.772 178.59L294.772 179.59L296.228 185.41ZM293.488 187.105L296.988 185.105L294.012 179.895L290.512 181.895L293.488 187.105ZM289.988 189.105L293.488 187.105L290.512 181.895L287.012 183.895L289.988 189.105ZM287.421 191.305L290.421 188.805L286.579 184.195L283.579 186.695L287.421 191.305ZM283.182 193.257L286.682 191.757L284.318 186.243L280.818 187.743L283.182 193.257ZM279.053 194.809L283.053 193.309L280.947 187.691L276.947 189.191L279.053 194.809ZM274.924 195.47L278.424 194.97L277.576 189.03L274.076 189.53L274.924 195.47ZM271.424 195.97L274.924 195.47L274.076 189.53L270.576 190.03L271.424 195.97ZM267.5 196H271V190H267.5V196ZM263.176 194.885L266.676 195.885L268.324 190.115L264.824 189.115L263.176 194.885ZM259.336 192.496L262.336 194.496L265.664 189.504L262.664 187.504L259.336 192.496ZM256.079 189.805L259.079 192.305L262.921 187.695L259.921 185.195L256.079 189.805ZM252.879 186.621L255.879 189.621L260.121 185.379L257.121 182.379L252.879 186.621ZM251.154 182.449L252.154 185.449L257.846 183.551L256.846 180.551L251.154 182.449ZM250.523 177.872L251.023 181.872L256.977 181.128L256.477 177.128L250.523 177.872ZM251.09 174.772L250.59 176.772L256.41 178.228L256.91 176.228L251.09 174.772ZM253.836 172.004L252.336 173.004L255.664 177.996L257.164 176.996L253.836 172.004ZM257 171.5H255.5V177.5H257V171.5ZM260.088 172.058L257.588 171.558L256.412 177.442L258.912 177.942L260.088 172.058ZM262.5 172H259.5V178H262.5V172ZM266 172H262.5V178H266V172ZM270.5 172H266V178H270.5V172ZM273.5 172H270.5V178H273.5V172ZM276.5 172H273.5V178H276.5V172ZM277.772 171.59L275.772 172.09L277.228 177.91L279.228 177.41L277.772 171.59ZM279.772 171.09L277.772 171.59L279.228 177.41L281.228 176.91L279.772 171.09ZM281.051 170.654L279.551 171.154L281.449 176.846L282.949 176.346L281.051 170.654ZM284.051 169.654L281.051 170.654L282.949 176.346L285.949 175.346L284.051 169.654ZM287.051 168.654L284.051 169.654L285.949 175.346L288.949 174.346L287.051 168.654ZM288.658 167.817L286.658 168.817L289.342 174.183L291.342 173.183L288.658 167.817ZM290.658 166.817L288.658 167.817L291.342 173.183L293.342 172.183L290.658 166.817ZM292.957 165.428L290.457 166.928L293.543 172.072L296.043 170.572L292.957 165.428ZM294.7 164.1L292.7 165.6L296.3 170.4L298.3 168.9L294.7 164.1ZM296.879 161.879L294.379 164.379L298.621 168.621L301.121 166.121L296.879 161.879ZM298.657 159.626L296.657 162.126L301.343 165.874L303.343 163.374L298.657 159.626ZM301.059 156.256L298.559 159.756L303.441 163.244L305.941 159.744L301.059 156.256ZM302.317 153.658L300.817 156.658L306.183 159.342L307.683 156.342L302.317 153.658ZM303.317 151.658L302.317 153.658L307.683 156.342L308.683 154.342L303.317 151.658ZM304.215 149.386L303.215 151.886L308.785 154.114L309.785 151.614L304.215 149.386ZM304.59 147.772L304.09 149.772L309.91 151.228L310.41 149.228L304.59 147.772ZM304.5 145.5V148.5H310.5V145.5H304.5ZM304.5 141.5V145.5H310.5V141.5H304.5ZM304.5 138V141.5H310.5V138H304.5ZM304.5 135V138H310.5V135H304.5ZM304.03 131.924L304.53 135.424L310.47 134.576L309.97 131.076L304.03 131.924ZM303.154 129.449L304.154 132.449L309.846 130.551L308.846 127.551L303.154 129.449ZM301.743 126.182L303.243 129.682L308.757 127.318L307.257 123.818L301.743 126.182ZM299.559 123.244L302.059 126.744L306.941 123.256L304.441 119.756L299.559 123.244ZM297.657 120.874L299.657 123.374L304.343 119.626L302.343 117.126L297.657 120.874ZM294.722 117.452L297.722 120.952L302.278 117.048L299.278 113.548L294.722 117.452ZM292.379 115.121L294.879 117.621L299.121 113.379L296.621 110.879L292.379 115.121ZM290.126 113.343L292.626 115.343L296.374 110.657L293.874 108.657L290.126 113.343ZM286.756 110.941L290.256 113.441L293.744 108.559L290.244 106.059L286.756 110.941ZM283.512 109.105L287.012 111.105L289.988 105.895L286.488 103.895L283.512 109.105ZM280.676 108.385L284.176 109.385L285.824 103.615L282.324 102.615L280.676 108.385ZM276.772 107.41L280.772 108.41L282.228 102.59L278.228 101.59L276.772 107.41ZM273.576 106.97L277.076 107.47L277.924 101.53L274.424 101.03L273.576 106.97ZM269.628 106.477L273.628 106.977L274.372 101.023L270.372 100.523L269.628 106.477ZM266.5 106.5H270V100.5H266.5V106.5ZM262.331 106.982L266.831 106.482L266.169 100.518L261.669 101.018L262.331 106.982ZM258.151 107.929L262.651 106.929L261.349 101.071L256.849 102.071L258.151 107.929ZM254.228 108.91L258.228 107.91L256.772 102.09L252.772 103.09L254.228 108.91ZM250.218 110.741L254.718 108.741L252.282 103.259L247.782 105.259L250.218 110.741ZM245.718 112.741L250.218 110.741L247.782 105.259L243.282 107.259L245.718 112.741ZM242.09 115.044L246.09 112.544L242.91 107.456L238.91 109.956L242.09 115.044ZM238.09 117.544L242.09 115.044L238.91 109.956L234.91 112.456L238.09 117.544ZM234.952 120.278L238.452 117.278L234.548 112.722L231.048 115.722L234.952 120.278ZM231.452 123.278L234.952 120.278L231.048 115.722L227.548 118.722L231.452 123.278ZM228.778 126.452L231.778 122.952L227.222 119.048L224.222 122.548L228.778 126.452ZM225.258 130.476L228.758 126.476L224.242 122.524L220.742 126.524L225.258 130.476ZM223.044 134.09L225.544 130.09L220.456 126.91L217.956 130.91L223.044 134.09ZM221.183 137.842L223.183 133.842L217.817 131.158L215.817 135.158L221.183 137.842ZM219.846 141.949L221.346 137.449L215.654 135.551L214.154 140.051L219.846 141.949ZM218.885 145.324L219.885 141.824L214.115 140.176L213.115 143.676L218.885 145.324ZM251.121 150.379L250.121 149.379L245.879 153.621L246.879 154.621L251.121 150.379ZM253.374 152.157L250.874 150.157L247.126 154.843L249.626 156.843L253.374 152.157ZM255.114 152.715L252.614 151.715L250.386 157.285L252.886 158.285L255.114 152.715ZM256.728 153.09L254.728 152.59L253.272 158.41L255.272 158.91L256.728 153.09ZM259.088 153.558L256.588 153.058L255.412 158.942L257.912 159.442L259.088 153.558ZM260 153.5H258.5V159.5H260V153.5ZM261.5 153.5H260V159.5H261.5V153.5ZM263 153.5H261.5V159.5H263V153.5ZM264 153.5H263V159.5H264V153.5ZM265.5 153.5H264V159.5H265.5V153.5ZM266.5 153.5H265.5V159.5H266.5V153.5ZM268.5 153.5H266.5V159.5H268.5V153.5ZM270.412 153.058L267.912 153.558L269.088 159.442L271.588 158.942L270.412 153.058ZM270.658 152.817L269.658 153.317L272.342 158.683L273.342 158.183L270.658 152.817ZM271.836 152.004L270.336 153.004L273.664 157.996L275.164 156.996L271.836 152.004ZM273.336 151.004L271.836 152.004L275.164 156.996L276.664 155.996L273.336 151.004ZM274.1 149.7L272.6 151.7L277.4 155.3L278.9 153.3L274.1 149.7ZM275.6 147.7L274.1 149.7L278.9 153.3L280.4 151.3L275.6 147.7ZM276.317 146.158L275.317 148.158L280.683 150.842L281.683 148.842L276.317 146.158ZM276.59 144.772L276.09 146.772L281.91 148.228L282.41 146.228L276.59 144.772ZM276.5 143.5V145.5H282.5V143.5H276.5ZM276.5 141.5V143.5H282.5V141.5H276.5ZM276.5 140V141.5H282.5V140H276.5ZM276.317 140.342L276.817 141.342L282.183 138.658L281.683 137.658L276.317 140.342ZM275.817 139.342L276.317 140.342L281.683 137.658L281.183 136.658L275.817 139.342ZM275.004 138.164L276.004 139.664L280.996 136.336L279.996 134.836L275.004 138.164ZM274.379 137.621L275.379 138.621L279.621 134.379L278.621 133.379L274.379 137.621ZM272.457 136.572L274.957 138.072L278.043 132.928L275.543 131.428L272.457 136.572ZM271.551 136.346L273.051 136.846L274.949 131.154L273.449 130.654L271.551 136.346ZM269.412 135.942L271.912 136.442L273.088 130.558L270.588 130.058L269.412 135.942ZM268 136H270V130H268V136ZM263.5 136H268V130H263.5V136ZM260.424 136.47L263.924 135.97L263.076 130.03L259.576 130.53L260.424 136.47ZM256.728 137.41L260.728 136.41L259.272 130.59L255.272 131.59L256.728 137.41ZM255.043 138.572L257.543 137.072L254.457 131.928L251.957 133.428L255.043 138.572ZM251.3 141.4L255.3 138.4L251.7 133.6L247.7 136.6L251.3 141.4ZM250.572 143.043L252.072 140.543L246.928 137.457L245.428 139.957L250.572 143.043ZM249.496 144.664L250.496 143.164L245.504 139.836L244.504 141.336L249.496 144.664ZM249.346 145.449L249.846 143.949L244.154 142.051L243.654 143.551L249.346 145.449ZM248.91 147.228L249.41 145.228L243.59 143.772L243.09 145.772L248.91 147.228ZM249 148V146.5H243V148H249ZM249.41 149.272L248.91 147.272L243.09 148.728L243.59 150.728L249.41 149.272ZM250.121 149.379L248.621 147.879L244.379 152.121L245.879 153.621L250.121 149.379Z" fill="#030303"/>
<path d="M125 200.5L126 197.5L126.5 194.5L127 191.5L128 187.5L129 183.5L130 178.5L130.5 173.5V169.5V163.5V160.5L130 157.5L129 151.5L128 147.5L127 143.5L125.5 137.5L125 133V129.5V125.5V122.5L125.5 119.5L126.5 115.5L128 112.5L130 109.5L132.5 107.5L134.5 106.5L137 105.5H139L141 106L143 107L145 109L147 111.5L148.5 113.5L150 115L153 115.5H156.5L159 115L162 113.5L165 111.5L167.5 110L171 108.5L174 107.5L178 106.5H182H185L188 107L191 108L195 110L198 112L200 114L202 116.5L203.5 119.5L204.5 122.5L205 125.5V128.5L204.5 131.5L204 133.5L202 137.5L200 140.5L198 143L194 145.5L191 146.5H188H184.5L181.5 146L178.5 144.5L174.5 142.5L171.5 141L168 139.5L165 139H162L159 139.5L157 141.5L156 144L155 146.5V149.5L155.5 153.5L156 156.5L157 160.5L158 164.5L159.5 168.5L161 174L162.5 179L164 183.5L165 186.5L166 190L167 194.5L167.5 198.5V203.5V207.5L167 211L166 214.5L164 218L161.5 221L159 223.5L155 226.5L151 228.5L148 229.5L144 230H140L136 229.5L132 227.5L129 224.5L126.5 221L124.5 217.5L124 213.5V209.5V205.5L125 200.5Z" fill="#E2A166" stroke="#030303" stroke-width="6" stroke-linecap="round" stroke-linejoin="round"/>
<path fill-rule="evenodd" clip-rule="evenodd" d="M14.4981 132.808L12.5817 136.162L10.6654 139.515L9.22814 142.869L7.79087 146.702L6.8327 149.097L5.87452 152.451L4.91635 155.804L4.43726 158.679L3.95817 162.032L3.47909 164.907L3 168.74V174.489V177.842L3.47909 181.675L3.95817 185.029L4.91635 188.861L5.87452 192.694L7.31179 197.006L9.22814 201.317L11.6236 205.629L14.9772 210.42L18.8099 214.732L22.6426 218.565L26.9544 221.918L31.2662 224.793L36.5361 227.667L39.4106 228.625L43.7224 230.063L46.597 231.021L49.4715 231.5H53.7833H64.3232L68.1559 231.021L72.4677 230.063L77.7376 228.146L83.4867 225.272L88.2776 222.397L92.5894 219.044L97.3802 214.732L102.171 208.983L106.004 203.234L108.878 197.485L111.274 191.736L113.669 184.549L115.106 178.8L115.586 173.051V166.823V160.116V156.283L115.106 152.451L114.148 148.618L112.711 143.348L111.274 139.036L109.357 135.203L107.441 131.85L105.046 128.017L101.692 123.705L97.8593 119.873L94.5057 116.998L92.1103 115.082L90.1939 113.644L87.7985 112.207L85.8821 111.249L83.4867 110.291L79.1749 108.375L76.7795 107.416L72.9468 106.458L70.5513 105.979L67.1977 105.5H63.8441H56.6578H53.7833L49.9506 105.979L46.597 106.937L42.7643 108.375L38.9316 110.291L35.0989 112.207L32.7034 113.644L30.308 115.561L27.4335 117.956L25.038 119.873L22.6426 122.268L20.7262 124.663L19.289 126.101L17.72 128.205L14.4981 132.808ZM43.1395 156.163L42 161.291V165.849V172.116L43.1395 176.105L44.8488 178.953L48.2674 182.372L51.686 185.221L55.6744 186.93L57.9535 187.5H60.2326H62.5116H65.3605L67.6395 186.93L69.9186 185.791L72.7674 184.081L74.4767 181.802L75.6163 180.093L76.7558 177.814L77.8953 174.965L79.0349 171.547V169.267V165.849V160.721V158.442V156.163L78.4651 152.744L77.3256 149.326L75.6163 145.907L73.3372 143.058L71.6279 141.349L69.9186 140.209L67.6395 139.07L64.7907 138.5H61.9419H59.093L57.3837 139.07L54.5349 140.209L52.8256 141.349L51.686 142.488L49.9767 144.198L48.2674 145.907L47.1279 147.616L45.9884 149.895L44.8488 152.174L43.7093 154.453L43.1395 156.163Z" fill="#D4414C"/>
<path d="M12.5817 136.162L9.97702 134.673H9.97702L12.5817 136.162ZM14.4981 132.808L12.0404 131.088C11.9879 131.163 11.9388 131.24 11.8934 131.32L14.4981 132.808ZM10.6654 139.515L8.06067 138.027C8.00397 138.126 7.95298 138.228 7.90796 138.333L10.6654 139.515ZM9.22814 142.869L6.4707 141.687C6.45253 141.729 6.43534 141.772 6.41915 141.815L9.22814 142.869ZM7.79087 146.702L10.5763 147.816C10.5844 147.796 10.5922 147.775 10.5999 147.755L7.79087 146.702ZM6.8327 149.097L4.04727 147.983C4.0093 148.078 3.97621 148.174 3.94813 148.273L6.8327 149.097ZM4.91635 155.804L2.03178 154.98C2.00068 155.089 1.97578 155.199 1.95717 155.311L4.91635 155.804ZM4.43726 158.679L1.47808 158.186C1.47426 158.208 1.4707 158.231 1.46741 158.254L4.43726 158.679ZM3.95817 162.032L6.91736 162.526C6.92118 162.503 6.92474 162.48 6.92802 162.457L3.95817 162.032ZM3.47909 164.907L0.519906 164.414C0.513199 164.454 0.507314 164.494 0.502254 164.535L3.47909 164.907ZM3 168.74L0.0231664 168.367C0.00773716 168.491 0 168.615 0 168.74H3ZM3 177.842H0C0 177.967 0.00773716 178.091 0.0231664 178.214L3 177.842ZM3.47909 181.675L0.502254 182.047C0.50443 182.064 0.506758 182.082 0.509239 182.099L3.47909 181.675ZM3.95817 185.029L0.988326 185.453C1.00291 185.555 1.02274 185.656 1.04775 185.756L3.95817 185.029ZM4.91635 188.861L7.82678 188.134H7.82678L4.91635 188.861ZM5.87452 192.694L2.9641 193.422C2.98272 193.496 3.00419 193.57 3.02848 193.643L5.87452 192.694ZM7.31179 197.006L4.46574 197.954C4.49625 198.046 4.53116 198.136 4.57035 198.224L7.31179 197.006ZM9.22814 201.317L6.4867 202.536C6.5228 202.617 6.5625 202.697 6.60567 202.774L9.22814 201.317ZM11.6236 205.629L9.0011 207.086C9.05144 207.177 9.10644 207.265 9.16588 207.35L11.6236 205.629ZM14.9772 210.42L12.5195 212.141C12.586 212.236 12.6579 212.327 12.735 212.413L14.9772 210.42ZM18.8099 214.732L16.5677 216.725C16.6067 216.769 16.647 216.812 16.6886 216.853L18.8099 214.732ZM22.6426 218.565L20.5213 220.686C20.6092 220.774 20.7026 220.856 20.8008 220.933L22.6426 218.565ZM26.9544 221.918L25.1126 224.286C25.1702 224.331 25.2295 224.374 25.2903 224.414L26.9544 221.918ZM31.2662 224.793L29.6021 227.289C29.6758 227.338 29.7518 227.384 29.8296 227.426L31.2662 224.793ZM36.5361 227.667L35.0996 230.301C35.2556 230.386 35.4188 230.457 35.5874 230.513L36.5361 227.667ZM39.4106 228.625L40.3593 225.779L39.4106 228.625ZM43.7224 230.063L44.6711 227.217L43.7224 230.063ZM46.597 231.021L45.6483 233.867C45.7969 233.917 45.9492 233.954 46.1038 233.98L46.597 231.021ZM49.4715 231.5L48.9783 234.459C49.1413 234.486 49.3062 234.5 49.4715 234.5V231.5ZM64.3232 231.5V234.5C64.4476 234.5 64.5719 234.492 64.6953 234.477L64.3232 231.5ZM68.1559 231.021L68.528 233.998C68.6216 233.986 68.7146 233.97 68.8067 233.949L68.1559 231.021ZM72.4677 230.063L73.1185 232.991C73.2455 232.963 73.3706 232.927 73.4929 232.882L72.4677 230.063ZM77.7376 228.146L78.7629 230.966C78.8709 230.926 78.9765 230.881 79.0793 230.83L77.7376 228.146ZM83.4867 225.272L84.8283 227.955C84.897 227.921 84.9643 227.884 85.0302 227.844L83.4867 225.272ZM88.2776 222.397L89.8211 224.97C89.9245 224.908 90.0242 224.839 90.1194 224.765L88.2776 222.397ZM92.5894 219.044L94.4312 221.412C94.4878 221.368 94.5429 221.322 94.5963 221.274L92.5894 219.044ZM97.3802 214.732L99.3871 216.962C99.4936 216.866 99.5932 216.763 99.6849 216.652L97.3802 214.732ZM102.171 208.983L104.476 210.903C104.544 210.821 104.608 210.736 104.667 210.647L102.171 208.983ZM106.004 203.234L108.5 204.898C108.569 204.794 108.631 204.687 108.687 204.575L106.004 203.234ZM108.878 197.485L111.562 198.826C111.592 198.765 111.621 198.702 111.648 198.639L108.878 197.485ZM111.274 191.736L114.043 192.89C114.071 192.822 114.097 192.754 114.12 192.684L111.274 191.736ZM113.669 184.549L116.515 185.498C116.54 185.425 116.561 185.352 116.58 185.277L113.669 184.549ZM115.106 178.8L118.017 179.528C118.056 179.371 118.083 179.211 118.096 179.05L115.106 178.8ZM115.586 173.051L118.575 173.3C118.582 173.218 118.586 173.134 118.586 173.051H115.586ZM115.586 156.283H118.586C118.586 156.159 118.578 156.035 118.562 155.911L115.586 156.283ZM115.106 152.451L118.083 152.078C118.068 151.959 118.046 151.84 118.017 151.723L115.106 152.451ZM114.148 148.618L117.059 147.89C117.054 147.87 117.048 147.849 117.043 147.829L114.148 148.618ZM112.711 143.348L115.605 142.559C115.591 142.505 115.575 142.452 115.557 142.399L112.711 143.348ZM111.274 139.036L114.12 138.087C114.075 137.953 114.021 137.821 113.957 137.694L111.274 139.036ZM109.357 135.203L112.041 133.862C112.016 133.812 111.99 133.763 111.962 133.715L109.357 135.203ZM107.441 131.85L110.046 130.361C110.026 130.327 110.006 130.293 109.985 130.26L107.441 131.85ZM105.046 128.017L107.59 126.427C107.535 126.34 107.477 126.256 107.414 126.175L105.046 128.017ZM101.692 123.705L104.06 121.863C103.984 121.765 103.901 121.672 103.813 121.584L101.692 123.705ZM97.8593 119.873L99.9806 117.751C99.9264 117.697 99.87 117.645 99.8117 117.595L97.8593 119.873ZM94.5057 116.998L96.4581 114.72C96.4324 114.698 96.4062 114.677 96.3798 114.655L94.5057 116.998ZM92.1103 115.082L93.9844 112.739C93.96 112.72 93.9353 112.7 93.9103 112.682L92.1103 115.082ZM90.1939 113.644L91.9939 111.244C91.9114 111.183 91.8258 111.125 91.7374 111.072L90.1939 113.644ZM87.7985 112.207L89.342 109.635C89.2761 109.595 89.2088 109.558 89.1401 109.524L87.7985 112.207ZM85.8821 111.249L87.2238 108.566C87.1494 108.529 87.0735 108.495 86.9963 108.464L85.8821 111.249ZM83.4867 110.291L82.2683 113.032C82.3027 113.048 82.3375 113.062 82.3725 113.076L83.4867 110.291ZM79.1749 108.375L80.3933 105.633C80.3589 105.618 80.3241 105.603 80.2891 105.589L79.1749 108.375ZM76.7795 107.416L77.8936 104.631C77.7678 104.581 77.6386 104.539 77.5071 104.506L76.7795 107.416ZM72.9468 106.458L73.6744 103.548C73.6282 103.536 73.5818 103.526 73.5351 103.516L72.9468 106.458ZM70.5513 105.979L71.1397 103.037C71.0853 103.026 71.0305 103.017 70.9756 103.009L70.5513 105.979ZM67.1977 105.5L67.622 102.53C67.4815 102.51 67.3397 102.5 67.1977 102.5V105.5ZM53.7833 105.5V102.5C53.6589 102.5 53.5346 102.508 53.4112 102.523L53.7833 105.5ZM49.9506 105.979L49.5785 103.002C49.4256 103.021 49.2745 103.052 49.1264 103.095L49.9506 105.979ZM46.597 106.937L45.7728 104.053C45.6954 104.075 45.6189 104.1 45.5436 104.128L46.597 106.937ZM42.7643 108.375L41.7109 105.566C41.6127 105.602 41.5164 105.644 41.4226 105.691L42.7643 108.375ZM35.0989 112.207L33.7572 109.524C33.6885 109.558 33.6212 109.595 33.5554 109.635L35.0989 112.207ZM32.7034 113.644L31.1599 111.072C31.0447 111.141 30.9343 111.218 30.8293 111.302L32.7034 113.644ZM30.308 115.561L28.4339 113.218C28.4183 113.231 28.4028 113.243 28.3874 113.256L30.308 115.561ZM27.4335 117.956L29.3075 120.299C29.3232 120.286 29.3387 120.274 29.354 120.261L27.4335 117.956ZM25.038 119.873L23.1639 117.53C23.0775 117.599 22.995 117.673 22.9167 117.751L25.038 119.873ZM22.6426 122.268L20.5213 120.147C20.443 120.225 20.3691 120.308 20.3 120.394L22.6426 122.268ZM20.7262 124.663L22.8476 126.785C22.9258 126.707 22.9997 126.624 23.0688 126.538L20.7262 124.663ZM19.289 126.101L17.1677 123.979C17.0652 124.082 16.9704 124.192 16.8838 124.308L19.289 126.101ZM17.72 128.205L15.3148 126.412C15.2969 126.436 15.2794 126.46 15.2623 126.485L17.72 128.205ZM42 161.291L39.0714 160.64C39.024 160.854 39 161.072 39 161.291H42ZM43.1395 156.163L40.2935 155.214C40.2609 155.312 40.2333 155.411 40.211 155.512L43.1395 156.163ZM42 172.116H39C39 172.395 39.0388 172.672 39.1154 172.94L42 172.116ZM43.1395 176.105L40.255 176.929C40.3271 177.181 40.432 177.423 40.5671 177.648L43.1395 176.105ZM44.8488 178.953L42.2764 180.497C42.4026 180.707 42.5541 180.901 42.7275 181.075L44.8488 178.953ZM48.2674 182.372L46.1461 184.493C46.2102 184.558 46.2772 184.619 46.3469 184.677L48.2674 182.372ZM51.686 185.221L49.7655 187.526C49.9885 187.711 50.2374 187.864 50.5043 187.978L51.686 185.221ZM55.6744 186.93L54.4927 189.688C54.6397 189.751 54.7916 189.802 54.9468 189.841L55.6744 186.93ZM57.9535 187.5L57.2259 190.41C57.4638 190.47 57.7082 190.5 57.9535 190.5V187.5ZM65.3605 187.5V190.5C65.6058 190.5 65.8501 190.47 66.0881 190.41L65.3605 187.5ZM67.6395 186.93L68.3671 189.841C68.5795 189.788 68.7854 189.711 68.9812 189.614L67.6395 186.93ZM69.9186 185.791L71.2602 188.474C71.3289 188.44 71.3962 188.403 71.4621 188.363L69.9186 185.791ZM72.7674 184.081L74.3109 186.654C74.6437 186.454 74.9346 186.192 75.1674 185.881L72.7674 184.081ZM74.4767 181.802L76.8767 183.602C76.91 183.558 76.9421 183.513 76.9729 183.466L74.4767 181.802ZM75.6163 180.093L78.1124 181.757C78.1814 181.654 78.2439 181.546 78.2996 181.435L75.6163 180.093ZM76.7558 177.814L79.4391 179.156C79.4763 179.081 79.5104 179.005 79.5412 178.928L76.7558 177.814ZM77.8953 174.965L80.6808 176.079C80.7026 176.025 80.7228 175.97 80.7414 175.914L77.8953 174.965ZM79.0349 171.547L81.8809 172.495C81.9829 172.189 82.0349 171.869 82.0349 171.547H79.0349ZM79.0349 156.163H82.0349C82.0349 155.998 82.0212 155.833 81.9941 155.67L79.0349 156.163ZM78.4651 152.744L81.4243 152.251C81.3985 152.096 81.3607 151.944 81.3112 151.795L78.4651 152.744ZM77.3256 149.326L80.1716 148.377C80.1267 148.242 80.0723 148.111 80.0089 147.984L77.3256 149.326ZM75.6163 145.907L78.2996 144.565C78.2051 144.376 78.0909 144.198 77.9589 144.033L75.6163 145.907ZM73.3372 143.058L75.6798 141.184C75.6107 141.098 75.5368 141.015 75.4585 140.937L73.3372 143.058ZM71.6279 141.349L73.7492 139.228C73.6095 139.088 73.4564 138.962 73.292 138.853L71.6279 141.349ZM69.9186 140.209L71.5827 137.713C71.4792 137.644 71.3715 137.582 71.2602 137.526L69.9186 140.209ZM67.6395 139.07L68.9812 136.386C68.7427 136.267 68.4893 136.18 68.2279 136.128L67.6395 139.07ZM64.7907 138.5L65.379 135.558C65.1853 135.52 64.9883 135.5 64.7907 135.5V138.5ZM59.093 138.5V135.5C58.7706 135.5 58.4502 135.552 58.1443 135.654L59.093 138.5ZM57.3837 139.07L56.435 136.224C56.3793 136.242 56.3241 136.263 56.2696 136.284L57.3837 139.07ZM54.5349 140.209L53.4207 137.424C53.2279 137.501 53.0436 137.598 52.8708 137.713L54.5349 140.209ZM52.8256 141.349L51.1615 138.853C50.9971 138.962 50.844 139.088 50.7043 139.228L52.8256 141.349ZM49.9767 144.198L52.0981 146.319V146.319L49.9767 144.198ZM48.2674 145.907L46.1461 143.786C46.0064 143.925 45.8809 144.078 45.7713 144.243L48.2674 145.907ZM47.1279 147.616L44.6318 145.952C44.5628 146.056 44.5003 146.163 44.4446 146.275L47.1279 147.616ZM44.8488 152.174L47.5321 153.516V153.516L44.8488 152.174ZM43.7093 154.453L41.026 153.112C40.9625 153.239 40.9081 153.37 40.8633 153.505L43.7093 154.453ZM15.1865 137.65L17.1028 134.296L11.8934 131.32L9.97702 134.673L15.1865 137.65ZM13.2701 141.004L15.1865 137.65L9.97702 134.673L8.06067 138.027L13.2701 141.004ZM11.9856 144.051L13.4228 140.697L7.90796 138.333L6.4707 141.687L11.9856 144.051ZM10.5999 147.755L12.0371 143.922L6.41915 141.815L4.98189 145.648L10.5999 147.755ZM9.61813 150.211L10.5763 147.816L5.00544 145.587L4.04727 147.983L9.61813 150.211ZM8.7591 153.275L9.71727 149.921L3.94813 148.273L2.98995 151.626L8.7591 153.275ZM7.80092 156.628L8.7591 153.275L2.98995 151.626L2.03178 154.98L7.80092 156.628ZM7.39644 159.172L7.87553 156.297L1.95717 155.311L1.47808 158.186L7.39644 159.172ZM6.92802 162.457L7.40711 159.103L1.46741 158.254L0.988327 161.608L6.92802 162.457ZM6.43827 165.4L6.91736 162.526L0.998993 161.539L0.519906 164.414L6.43827 165.4ZM5.97683 169.112L6.45592 165.279L0.502254 164.535L0.0231664 168.367L5.97683 169.112ZM6 174.489V168.74H0V174.489H6ZM6 177.842V174.489H0V177.842H6ZM6.45592 181.303L5.97683 177.47L0.0231664 178.214L0.502254 182.047L6.45592 181.303ZM6.92802 184.604L6.44894 181.251L0.509239 182.099L0.988326 185.453L6.92802 184.604ZM7.82678 188.134L6.8686 184.301L1.04775 185.756L2.00592 189.589L7.82678 188.134ZM8.78495 191.966L7.82678 188.134L2.00592 189.589L2.9641 193.422L8.78495 191.966ZM10.1578 196.057L8.72057 191.745L3.02848 193.643L4.46574 197.954L10.1578 196.057ZM11.9696 200.099L10.0532 195.787L4.57035 198.224L6.4867 202.536L11.9696 200.099ZM14.246 204.172L11.8506 199.861L6.60567 202.774L9.0011 207.086L14.246 204.172ZM17.4349 208.7L14.0813 203.909L9.16588 207.35L12.5195 212.141L17.4349 208.7ZM21.0521 212.739L17.2194 208.427L12.735 212.413L16.5677 216.725L21.0521 212.739ZM24.7639 216.443L20.9312 212.611L16.6886 216.853L20.5213 220.686L24.7639 216.443ZM28.7962 219.55L24.4844 216.197L20.8008 220.933L25.1126 224.286L28.7962 219.55ZM32.9303 222.297L28.6185 219.422L25.2903 224.414L29.6021 227.289L32.9303 222.297ZM37.9727 225.034L32.7027 222.159L29.8296 227.426L35.0996 230.301L37.9727 225.034ZM40.3593 225.779L37.4848 224.821L35.5874 230.513L38.462 231.472L40.3593 225.779ZM44.6711 227.217L40.3593 225.779L38.462 231.472L42.7738 232.909L44.6711 227.217ZM47.5456 228.175L44.6711 227.217L42.7738 232.909L45.6483 233.867L47.5456 228.175ZM49.9647 228.541L47.0902 228.062L46.1038 233.98L48.9783 234.459L49.9647 228.541ZM53.7833 228.5H49.4715V234.5H53.7833V228.5ZM64.3232 228.5H53.7833V234.5H64.3232V228.5ZM67.7838 228.044L63.9511 228.523L64.6953 234.477L68.528 233.998L67.7838 228.044ZM71.8169 227.134L67.5051 228.092L68.8067 233.949L73.1185 232.991L71.8169 227.134ZM76.7124 225.327L71.4425 227.243L73.4929 232.882L78.7629 230.966L76.7124 225.327ZM82.1451 222.589L76.396 225.463L79.0793 230.83L84.8283 227.955L82.1451 222.589ZM86.7341 219.825L81.9432 222.699L85.0302 227.844L89.8211 224.97L86.7341 219.825ZM90.7475 216.676L86.4357 220.029L90.1194 224.765L94.4312 221.412L90.7475 216.676ZM95.3733 212.502L90.5825 216.814L94.5963 221.274L99.3871 216.962L95.3733 212.502ZM99.8664 207.062L95.0756 212.811L99.6849 216.652L104.476 210.903L99.8664 207.062ZM103.508 201.57L99.675 207.319L104.667 210.647L108.5 204.898L103.508 201.57ZM106.195 196.143L103.321 201.892L108.687 204.575L111.562 198.826L106.195 196.143ZM108.505 190.582L106.109 196.331L111.648 198.639L114.043 192.89L108.505 190.582ZM110.823 183.601L108.428 190.787L114.12 192.684L116.515 185.498L110.823 183.601ZM112.196 178.073L110.759 183.822L116.58 185.277L118.017 179.528L112.196 178.073ZM112.596 172.802L112.117 178.551L118.096 179.05L118.575 173.3L112.596 172.802ZM112.586 166.823V173.051H118.586V166.823H112.586ZM112.586 160.116V166.823H118.586V160.116H112.586ZM112.586 156.283V160.116H118.586V156.283H112.586ZM112.13 152.823L112.609 156.655L118.562 155.911L118.083 152.078L112.13 152.823ZM111.238 149.345L112.196 153.178L118.017 151.723L117.059 147.89L111.238 149.345ZM109.817 144.137L111.254 149.407L117.043 147.829L115.605 142.559L109.817 144.137ZM108.428 139.985L109.865 144.297L115.557 142.399L114.12 138.087L108.428 139.985ZM106.674 136.545L108.59 140.378L113.957 137.694L112.041 133.862L106.674 136.545ZM104.836 133.338L106.753 136.692L111.962 133.715L110.046 130.361L104.836 133.338ZM102.502 129.607L104.897 133.44L109.985 130.26L107.59 126.427L102.502 129.607ZM99.324 125.547L102.678 129.859L107.414 126.175L104.06 121.863L99.324 125.547ZM95.738 121.994L99.5707 125.827L103.813 121.584L99.9806 117.751L95.738 121.994ZM92.5533 119.276L95.907 122.15L99.8117 117.595L96.4581 114.72L92.5533 119.276ZM90.2362 117.424L92.6316 119.341L96.3798 114.655L93.9844 112.739L90.2362 117.424ZM88.3939 116.044L90.3103 117.482L93.9103 112.682L91.9939 111.244L88.3939 116.044ZM86.255 114.78L88.6504 116.217L91.7374 111.072L89.342 109.635L86.255 114.78ZM84.5405 113.932L86.4568 114.891L89.1401 109.524L87.2238 108.566L84.5405 113.932ZM82.3725 113.076L84.768 114.034L86.9963 108.464L84.6009 107.505L82.3725 113.076ZM77.9565 111.116L82.2683 113.032L84.7051 107.549L80.3933 105.633L77.9565 111.116ZM75.6653 110.202L78.0607 111.16L80.2891 105.589L77.8936 104.631L75.6653 110.202ZM72.2192 109.369L76.0519 110.327L77.5071 104.506L73.6744 103.548L72.2192 109.369ZM69.963 108.921L72.3584 109.4L73.5351 103.516L71.1397 103.037L69.963 108.921ZM66.7735 108.47L70.1271 108.949L70.9756 103.009L67.622 102.53L66.7735 108.47ZM63.8441 108.5H67.1977V102.5H63.8441V108.5ZM56.6578 108.5H63.8441V102.5H56.6578V108.5ZM53.7833 108.5H56.6578V102.5H53.7833V108.5ZM50.3227 108.956L54.1554 108.477L53.4112 102.523L49.5785 103.002L50.3227 108.956ZM47.4211 109.822L50.7747 108.864L49.1264 103.095L45.7728 104.053L47.4211 109.822ZM43.8176 111.184L47.6503 109.746L45.5436 104.128L41.7109 105.566L43.8176 111.184ZM40.2732 112.974L44.1059 111.058L41.4226 105.691L37.5899 107.608L40.2732 112.974ZM36.4405 114.891L40.2732 112.974L37.5899 107.608L33.7572 109.524L36.4405 114.891ZM34.2469 116.217L36.6423 114.78L33.5554 109.635L31.1599 111.072L34.2469 116.217ZM32.1821 117.903L34.5775 115.987L30.8293 111.302L28.4339 113.218L32.1821 117.903ZM29.354 120.261L32.2285 117.865L28.3874 113.256L25.5129 115.652L29.354 120.261ZM26.9121 122.215L29.3075 120.299L25.5594 115.614L23.1639 117.53L26.9121 122.215ZM24.7639 124.389L27.1593 121.994L22.9167 117.751L20.5213 120.147L24.7639 124.389ZM23.0688 126.538L24.9852 124.142L20.3 120.394L18.3836 122.789L23.0688 126.538ZM21.4103 128.222L22.8476 126.785L18.6049 122.542L17.1677 123.979L21.4103 128.222ZM20.1251 129.998L21.6941 127.894L16.8838 124.308L15.3148 126.412L20.1251 129.998ZM16.9558 134.528L20.1777 129.926L15.2623 126.485L12.0404 131.088L16.9558 134.528ZM44.9286 161.941L46.0681 156.814L40.211 155.512L39.0714 160.64L44.9286 161.941ZM45 165.849V161.291H39V165.849H45ZM45 172.116V165.849H39V172.116H45ZM46.0241 175.28L44.8846 171.292L39.1154 172.94L40.255 176.929L46.0241 175.28ZM47.4213 177.41L45.712 174.561L40.5671 177.648L42.2764 180.497L47.4213 177.41ZM50.3888 180.251L46.9702 176.832L42.7275 181.075L46.1461 184.493L50.3888 180.251ZM53.6066 182.916L50.188 180.067L46.3469 184.677L49.7655 187.526L53.6066 182.916ZM56.8562 184.173L52.8678 182.463L50.5043 187.978L54.4927 189.688L56.8562 184.173ZM58.6811 184.59L56.402 184.02L54.9468 189.841L57.2259 190.41L58.6811 184.59ZM60.2326 184.5H57.9535V190.5H60.2326V184.5ZM62.5116 184.5H60.2326V190.5H62.5116V184.5ZM65.3605 184.5H62.5116V190.5H65.3605V184.5ZM66.9119 184.02L64.6329 184.59L66.0881 190.41L68.3671 189.841L66.9119 184.02ZM68.577 183.107L66.2979 184.247L68.9812 189.614L71.2602 188.474L68.577 183.107ZM71.224 181.509L68.3751 183.218L71.4621 188.363L74.3109 186.654L71.224 181.509ZM72.0767 180.002L70.3674 182.281L75.1674 185.881L76.8767 183.602L72.0767 180.002ZM73.1201 178.429L71.9806 180.138L76.9729 183.466L78.1124 181.757L73.1201 178.429ZM74.0725 176.472L72.933 178.751L78.2996 181.435L79.4391 179.156L74.0725 176.472ZM75.1099 173.851L73.9704 176.7L79.5412 178.928L80.6808 176.079L75.1099 173.851ZM76.1888 170.598L75.0493 174.016L80.7414 175.914L81.8809 172.495L76.1888 170.598ZM76.0349 169.267V171.547H82.0349V169.267H76.0349ZM76.0349 165.849V169.267H82.0349V165.849H76.0349ZM76.0349 160.721V165.849H82.0349V160.721H76.0349ZM76.0349 158.442V160.721H82.0349V158.442H76.0349ZM76.0349 156.163V158.442H82.0349V156.163H76.0349ZM75.5059 153.237L76.0757 156.656L81.9941 155.67L81.4243 152.251L75.5059 153.237ZM74.4795 150.274L75.6191 153.693L81.3112 151.795L80.1716 148.377L74.4795 150.274ZM72.933 147.249L74.6423 150.667L80.0089 147.984L78.2996 144.565L72.933 147.249ZM70.9946 144.932L73.2737 147.781L77.9589 144.033L75.6798 141.184L70.9946 144.932ZM69.5066 143.47L71.2159 145.179L75.4585 140.937L73.7492 139.228L69.5066 143.47ZM68.2545 142.705L69.9638 143.845L73.292 138.853L71.5827 137.713L68.2545 142.705ZM66.2979 141.753L68.577 142.893L71.2602 137.526L68.9812 136.386L66.2979 141.753ZM64.2023 141.442L67.0512 142.012L68.2279 136.128L65.379 135.558L64.2023 141.442ZM61.9419 141.5H64.7907V135.5H61.9419V141.5ZM59.093 141.5H61.9419V135.5H59.093V141.5ZM58.3324 141.916L60.0417 141.346L58.1443 135.654L56.435 136.224L58.3324 141.916ZM55.6491 142.995L58.4979 141.855L56.2696 136.284L53.4207 137.424L55.6491 142.995ZM54.4897 143.845L56.199 142.705L52.8708 137.713L51.1615 138.853L54.4897 143.845ZM53.8074 144.61L54.9469 143.47L50.7043 139.228L49.5647 140.367L53.8074 144.61ZM52.0981 146.319L53.8074 144.61L49.5647 140.367L47.8554 142.076L52.0981 146.319ZM50.3888 148.028L52.0981 146.319L47.8554 142.076L46.1461 143.786L50.3888 148.028ZM49.6241 149.28L50.7636 147.571L45.7713 144.243L44.6318 145.952L49.6241 149.28ZM48.6717 151.237L49.8112 148.958L44.4446 146.275L43.3051 148.554L48.6717 151.237ZM47.5321 153.516L48.6717 151.237L43.3051 148.554L42.1656 150.833L47.5321 153.516ZM46.3926 155.795L47.5321 153.516L42.1656 150.833L41.026 153.112L46.3926 155.795ZM45.9856 157.111L46.5554 155.402L40.8633 153.505L40.2935 155.214L45.9856 157.111ZM15.394 126.297L15.2623 126.485L20.1777 129.926L20.3094 129.737L15.394 126.297Z" fill="#030303"/>
</svg>
